<svg width="24" height="24" viewBox="0 0 24 24" fill="none" xmlns="http://www.w3.org/2000/svg">
<path d="M14.4066 16.5193C15.9758 16.3232 17.5176 15.9323 19 15.3547C17.7446 13.8867 17.0509 11.9786 17.0537 10.0009V9.37862V9.33417C17.0537 7.91946 16.5213 6.56269 15.5736 5.56234C14.6259 4.56199 13.3406 4 12.0004 4C10.6602 4 9.37491 4.56199 8.42724 5.56234C7.47958 6.56269 6.94718 7.91946 6.94718 9.33417V10.0009C6.94972 11.9787 6.25572 13.8868 5 15.3547C6.45954 15.9236 7.99826 16.3193 9.59424 16.5193M14.4066 16.5193C12.8081 16.7194 11.1928 16.7194 9.59424 16.5193M14.4066 16.5193C14.528 16.9192 14.5581 17.3438 14.4947 17.7584C14.4312 18.1729 14.2759 18.5658 14.0414 18.9051C13.8069 19.2443 13.4998 19.5203 13.1451 19.7106C12.7905 19.9008 12.3983 20 12.0004 20C11.6026 20 11.2104 19.9008 10.8557 19.7106C10.501 19.5203 10.1939 19.2443 9.95944 18.9051C9.72492 18.5658 9.56961 18.1729 9.50615 17.7584C9.44269 17.3438 9.47287 16.9192 9.59424 16.5193" stroke="#545454" stroke-width="1.5" stroke-linecap="round" stroke-linejoin="round"/>
</svg>
