<svg width="24" height="24" viewBox="0 0 24 24" fill="none" xmlns="http://www.w3.org/2000/svg">
<path fill-rule="evenodd" clip-rule="evenodd" d="M3 12C3 7.02923 7.02923 3 12 3C16.9708 3 21 7.02923 21 12C21 16.9708 16.9708 21 12 21C7.02923 21 3 16.9708 3 12ZM15.3323 10.3255C15.3877 10.2517 15.4278 10.1676 15.4502 10.0781C15.4726 9.9886 15.4769 9.89552 15.4628 9.80433C15.4487 9.71314 15.4165 9.62568 15.3682 9.54711C15.3198 9.46853 15.2562 9.40041 15.1812 9.34675C15.1061 9.2931 15.0211 9.25499 14.9311 9.23467C14.8411 9.21435 14.7479 9.21223 14.6571 9.22843C14.5662 9.24462 14.4795 9.27882 14.4021 9.32899C14.3247 9.37917 14.258 9.44432 14.2062 9.52062L11.2191 13.7022L9.72 12.2031C9.58876 12.0808 9.41518 12.0142 9.23583 12.0174C9.05647 12.0205 8.88535 12.0932 8.7585 12.22C8.63166 12.3469 8.559 12.518 8.55584 12.6974C8.55267 12.8767 8.61925 13.0503 8.74154 13.1815L10.8185 15.2585C10.8895 15.3295 10.9752 15.3842 11.0695 15.4187C11.1639 15.4533 11.2646 15.467 11.3647 15.4587C11.4648 15.4505 11.562 15.4205 11.6493 15.3709C11.7367 15.3214 11.8123 15.2534 11.8708 15.1717L15.3323 10.3255Z" fill="#30B368"/>
</svg>
