<svg width="40" height="40" viewBox="0 0 40 40" fill="none" xmlns="http://www.w3.org/2000/svg">
<g clip-path="url(#clip0_83_1593)">
<path d="M20 40C31.0457 40 40 31.0457 40 20C40 8.9543 31.0457 0 20 0C8.9543 0 0 8.9543 0 20C0 31.0457 8.9543 40 20 40Z" fill="#007AB5"/>
<path d="M14.4997 29.0833H10.6663V16.75H14.4997V29.0833ZM12.4163 15.1666C10.9997 15.1666 10.083 14.25 10.083 13C10.083 11.75 10.9997 10.8333 12.4163 10.8333C13.833 10.8333 14.7497 11.75 14.7497 13C14.7497 14.25 13.9163 15.1666 12.4163 15.1666ZM29.9163 29.0833H25.4997V22.6666C25.4997 21 24.833 19.8333 23.333 19.8333C22.1663 19.8333 21.583 20.5833 21.2497 21.3333C21.1663 21.5833 21.1663 22 21.1663 22.3333V29H16.833C16.833 29 16.9163 17.6666 16.833 16.6666H21.1663V18.5833C21.4163 17.75 22.833 16.5 24.9997 16.5C27.7497 16.5 29.9163 18.25 29.9163 22.0833V29.0833Z" fill="white"/>
</g>
<defs>
<clipPath id="clip0_83_1593">
<rect width="40" height="40" fill="white"/>
</clipPath>
</defs>
</svg>
