<svg width="24" height="24" viewBox="0 0 24 24" fill="none" xmlns="http://www.w3.org/2000/svg">
<path fill-rule="evenodd" clip-rule="evenodd" d="M12 3C7.02923 3 3 7.02923 3 12C3 16.9708 7.02923 21 12 21C16.9708 21 21 16.9708 21 12C21 7.02923 16.9708 3 12 3ZM10.4123 9.43385C10.3489 9.36583 10.2725 9.31127 10.1876 9.27343C10.1027 9.23559 10.011 9.21525 9.91802 9.21361C9.82506 9.21197 9.73273 9.22907 9.64653 9.26389C9.56032 9.29871 9.48201 9.35053 9.41627 9.41627C9.35053 9.48201 9.29871 9.56032 9.26389 9.64653C9.22907 9.73273 9.21197 9.82506 9.21361 9.91802C9.21525 10.011 9.23559 10.1027 9.27343 10.1876C9.31127 10.2725 9.36583 10.3489 9.43385 10.4123L11.0215 12L9.43385 13.5877C9.36583 13.6511 9.31127 13.7275 9.27343 13.8124C9.23559 13.8973 9.21525 13.989 9.21361 14.082C9.21197 14.1749 9.22907 14.2673 9.26389 14.3535C9.29871 14.4397 9.35053 14.518 9.41627 14.5837C9.48201 14.6495 9.56032 14.7013 9.64653 14.7361C9.73273 14.7709 9.82506 14.788 9.91802 14.7864C10.011 14.7848 10.1027 14.7644 10.1876 14.7266C10.2725 14.6887 10.3489 14.6342 10.4123 14.5662L12 12.9785L13.5877 14.5662C13.6511 14.6342 13.7275 14.6887 13.8124 14.7266C13.8973 14.7644 13.989 14.7848 14.082 14.7864C14.1749 14.788 14.2673 14.7709 14.3535 14.7361C14.4397 14.7013 14.518 14.6495 14.5837 14.5837C14.6495 14.518 14.7013 14.4397 14.7361 14.3535C14.7709 14.2673 14.788 14.1749 14.7864 14.082C14.7848 13.989 14.7644 13.8973 14.7266 13.8124C14.6887 13.7275 14.6342 13.6511 14.5662 13.5877L12.9785 12L14.5662 10.4123C14.6342 10.3489 14.6887 10.2725 14.7266 10.1876C14.7644 10.1027 14.7848 10.011 14.7864 9.91802C14.788 9.82506 14.7709 9.73273 14.7361 9.64653C14.7013 9.56032 14.6495 9.48201 14.5837 9.41627C14.518 9.35053 14.4397 9.29871 14.3535 9.26389C14.2673 9.22907 14.1749 9.21197 14.082 9.21361C13.989 9.21525 13.8973 9.23559 13.8124 9.27343C13.7275 9.31127 13.6511 9.36583 13.5877 9.43385L12 11.0215L10.4123 9.43385Z" fill="#FF5B5B"/>
</svg>
