<svg width="132" height="38" viewBox="0 0 132 38" fill="none" xmlns="http://www.w3.org/2000/svg">
<rect width="132" height="38" rx="6" fill="#1678FB"/>
<path d="M22 22V23.5C22 23.8978 22.158 24.2794 22.4393 24.5607C22.7206 24.842 23.1022 25 23.5 25H32.5C32.8978 25 33.2794 24.842 33.5607 24.5607C33.842 24.2794 34 23.8978 34 23.5V22M25 16L28 13M28 13L31 16M28 13V22" stroke="white" stroke-width="1.5" stroke-linecap="round" stroke-linejoin="round"/>
<path d="M52.1491 14.7727H53.9943V20.4403C53.9943 21.0767 53.8423 21.6335 53.5384 22.1108C53.2372 22.5881 52.8153 22.9602 52.2727 23.2273C51.7301 23.4915 51.098 23.6236 50.3764 23.6236C49.652 23.6236 49.0185 23.4915 48.4759 23.2273C47.9332 22.9602 47.5114 22.5881 47.2102 22.1108C46.9091 21.6335 46.7585 21.0767 46.7585 20.4403V14.7727H48.6037V20.2827C48.6037 20.6151 48.6761 20.9105 48.821 21.169C48.9688 21.4276 49.1761 21.6307 49.4432 21.7784C49.7102 21.9261 50.0213 22 50.3764 22C50.7344 22 51.0455 21.9261 51.3097 21.7784C51.5767 21.6307 51.7827 21.4276 51.9276 21.169C52.0753 20.9105 52.1491 20.6151 52.1491 20.2827V14.7727ZM55.4783 25.9545V16.9545H57.2681V18.054H57.3491C57.4286 17.8778 57.5437 17.6989 57.6942 17.517C57.8477 17.3324 58.0465 17.179 58.2908 17.0568C58.538 16.9318 58.8448 16.8693 59.2113 16.8693C59.6886 16.8693 60.1289 16.9943 60.5323 17.2443C60.9357 17.4915 61.2582 17.8651 61.4996 18.3651C61.7411 18.8622 61.8619 19.4858 61.8619 20.2358C61.8619 20.9659 61.744 21.5824 61.5082 22.0852C61.2752 22.5852 60.957 22.9645 60.5536 23.223C60.1531 23.4787 59.7042 23.6065 59.207 23.6065C58.8548 23.6065 58.555 23.5483 58.3079 23.4318C58.0636 23.3153 57.8633 23.169 57.707 22.9929C57.5508 22.8139 57.4315 22.6335 57.3491 22.4517H57.2937V25.9545H55.4783ZM57.2553 20.2273C57.2553 20.6165 57.3093 20.956 57.4173 21.2457C57.5252 21.5355 57.6815 21.7614 57.886 21.9233C58.0906 22.0824 58.3391 22.1619 58.6317 22.1619C58.9272 22.1619 59.1772 22.081 59.3817 21.919C59.5863 21.7543 59.7411 21.527 59.8462 21.2372C59.9542 20.9446 60.0082 20.608 60.0082 20.2273C60.0082 19.8494 59.9556 19.517 59.8505 19.2301C59.7454 18.9432 59.5906 18.7187 59.386 18.5568C59.1815 18.3949 58.93 18.3139 58.6317 18.3139C58.3363 18.3139 58.0863 18.392 57.8817 18.5483C57.68 18.7045 57.5252 18.9261 57.4173 19.2131C57.3093 19.5 57.2553 19.8381 57.2553 20.2273ZM64.8874 14.7727V23.5H63.0721V14.7727H64.8874ZM69.299 23.6278C68.6371 23.6278 68.0646 23.4872 67.5817 23.206C67.1016 22.9219 66.7308 22.527 66.4695 22.0213C66.2081 21.5128 66.0774 20.9233 66.0774 20.2528C66.0774 19.5767 66.2081 18.9858 66.4695 18.4801C66.7308 17.9716 67.1016 17.5767 67.5817 17.2955C68.0646 17.0114 68.6371 16.8693 69.299 16.8693C69.9609 16.8693 70.532 17.0114 71.0121 17.2955C71.495 17.5767 71.8672 17.9716 72.1286 18.4801C72.3899 18.9858 72.5206 19.5767 72.5206 20.2528C72.5206 20.9233 72.3899 21.5128 72.1286 22.0213C71.8672 22.527 71.495 22.9219 71.0121 23.206C70.532 23.4872 69.9609 23.6278 69.299 23.6278ZM69.3075 22.2216C69.6087 22.2216 69.8601 22.1364 70.0618 21.9659C70.2635 21.7926 70.4155 21.5568 70.5178 21.2585C70.6229 20.9602 70.6754 20.6207 70.6754 20.2401C70.6754 19.8594 70.6229 19.5199 70.5178 19.2216C70.4155 18.9233 70.2635 18.6875 70.0618 18.5142C69.8601 18.3409 69.6087 18.2543 69.3075 18.2543C69.0036 18.2543 68.7479 18.3409 68.5405 18.5142C68.3359 18.6875 68.1811 18.9233 68.076 19.2216C67.9737 19.5199 67.9226 19.8594 67.9226 20.2401C67.9226 20.6207 67.9737 20.9602 68.076 21.2585C68.1811 21.5568 68.3359 21.7926 68.5405 21.9659C68.7479 22.1364 69.0036 22.2216 69.3075 22.2216ZM75.5675 23.6236C75.1499 23.6236 74.7777 23.5511 74.451 23.4062C74.1243 23.2585 73.8658 23.0412 73.6754 22.7543C73.4879 22.4645 73.3942 22.1037 73.3942 21.6719C73.3942 21.3082 73.4609 21.0028 73.5945 20.7557C73.728 20.5085 73.9098 20.3097 74.1399 20.1591C74.37 20.0085 74.6314 19.8949 74.924 19.8182C75.2195 19.7415 75.5291 19.6875 75.853 19.6562C76.2337 19.6165 76.5405 19.5795 76.7734 19.5455C77.0064 19.5085 77.1754 19.4545 77.2805 19.3835C77.3857 19.3125 77.4382 19.2074 77.4382 19.0682V19.0426C77.4382 18.7727 77.353 18.5639 77.1825 18.4162C77.0149 18.2685 76.7763 18.1946 76.4666 18.1946C76.1399 18.1946 75.88 18.267 75.6868 18.4119C75.4936 18.554 75.3658 18.733 75.3033 18.9489L73.6243 18.8125C73.7095 18.4148 73.8771 18.071 74.1271 17.7812C74.3771 17.4886 74.6996 17.2642 75.0945 17.108C75.4922 16.9489 75.9524 16.8693 76.4751 16.8693C76.8388 16.8693 77.1868 16.9119 77.5192 16.9972C77.8544 17.0824 78.1513 17.2145 78.4098 17.3935C78.6712 17.5724 78.8771 17.8026 79.0277 18.0838C79.1783 18.3622 79.2536 18.696 79.2536 19.0852V23.5H77.532V22.5923H77.4808C77.3757 22.7969 77.2351 22.9773 77.0589 23.1335C76.8828 23.2869 76.6712 23.4077 76.424 23.4957C76.1768 23.581 75.8913 23.6236 75.5675 23.6236ZM76.0874 22.3707C76.3544 22.3707 76.5902 22.3182 76.7947 22.2131C76.9993 22.1051 77.1598 21.9602 77.2763 21.7784C77.3928 21.5966 77.451 21.3906 77.451 21.1605V20.4659C77.3942 20.5028 77.3161 20.5369 77.2166 20.5682C77.12 20.5966 77.0107 20.6236 76.8885 20.6491C76.7663 20.6719 76.6442 20.6932 76.522 20.7131C76.3999 20.7301 76.2891 20.7457 76.1896 20.7599C75.9766 20.7912 75.7905 20.8409 75.6314 20.9091C75.4723 20.9773 75.3487 21.0696 75.2607 21.1861C75.1726 21.2997 75.1286 21.4418 75.1286 21.6122C75.1286 21.8594 75.218 22.0483 75.397 22.179C75.5788 22.3068 75.8089 22.3707 76.0874 22.3707ZM83.0739 23.6065C82.5767 23.6065 82.1264 23.4787 81.723 23.223C81.3224 22.9645 81.0043 22.5852 80.7685 22.0852C80.5355 21.5824 80.419 20.9659 80.419 20.2358C80.419 19.4858 80.5398 18.8622 80.7812 18.3651C81.0227 17.8651 81.3438 17.4915 81.7443 17.2443C82.1477 16.9943 82.5895 16.8693 83.0696 16.8693C83.4361 16.8693 83.7415 16.9318 83.9858 17.0568C84.233 17.179 84.4318 17.3324 84.5824 17.517C84.7358 17.6989 84.8523 17.8778 84.9318 18.054H84.9872V14.7727H86.7983V23.5H85.0085V22.4517H84.9318C84.8466 22.6335 84.7259 22.8139 84.5696 22.9929C84.4162 23.169 84.2159 23.3153 83.9688 23.4318C83.7244 23.5483 83.4261 23.6065 83.0739 23.6065ZM83.6491 22.1619C83.9418 22.1619 84.1889 22.0824 84.3906 21.9233C84.5952 21.7614 84.7514 21.5355 84.8594 21.2457C84.9702 20.956 85.0256 20.6165 85.0256 20.2273C85.0256 19.8381 84.9716 19.5 84.8636 19.2131C84.7557 18.9261 84.5994 18.7045 84.3949 18.5483C84.1903 18.392 83.9418 18.3139 83.6491 18.3139C83.3509 18.3139 83.0994 18.3949 82.8949 18.5568C82.6903 18.7187 82.5355 18.9432 82.4304 19.2301C82.3253 19.517 82.2727 19.8494 82.2727 20.2273C82.2727 20.608 82.3253 20.9446 82.4304 21.2372C82.5384 21.527 82.6932 21.7543 82.8949 21.919C83.0994 22.081 83.3509 22.1619 83.6491 22.1619ZM91.1023 23.5V14.7727H96.8807V16.294H92.9474V18.3736H96.4972V19.8949H92.9474V23.5H91.1023ZM98.0877 23.5V16.9545H99.9031V23.5H98.0877ZM98.9996 16.1108C98.7298 16.1108 98.4982 16.0213 98.305 15.8423C98.1147 15.6605 98.0195 15.4432 98.0195 15.1903C98.0195 14.9403 98.1147 14.7259 98.305 14.5469C98.4982 14.3651 98.7298 14.2741 98.9996 14.2741C99.2695 14.2741 99.4996 14.3651 99.69 14.5469C99.8832 14.7259 99.9798 14.9403 99.9798 15.1903C99.9798 15.4432 99.8832 15.6605 99.69 15.8423C99.4996 16.0213 99.2695 16.1108 98.9996 16.1108ZM103.173 14.7727V23.5H101.357V14.7727H103.173ZM107.61 23.6278C106.936 23.6278 106.357 23.4915 105.871 23.2188C105.388 22.9432 105.016 22.554 104.755 22.0511C104.493 21.5455 104.363 20.9474 104.363 20.2571C104.363 19.5838 104.493 18.9929 104.755 18.4844C105.016 17.9759 105.384 17.5795 105.858 17.2955C106.336 17.0114 106.895 16.8693 107.537 16.8693C107.969 16.8693 108.371 16.9389 108.743 17.0781C109.118 17.2145 109.445 17.4205 109.723 17.696C110.005 17.9716 110.223 18.3182 110.38 18.7358C110.536 19.1506 110.614 19.6364 110.614 20.1932V20.6918H105.087V19.5668H108.905C108.905 19.3054 108.848 19.0739 108.735 18.8722C108.621 18.6705 108.463 18.5128 108.262 18.3991C108.063 18.2827 107.831 18.2244 107.567 18.2244C107.292 18.2244 107.047 18.2884 106.834 18.4162C106.624 18.5412 106.459 18.7102 106.34 18.9233C106.221 19.1335 106.159 19.3679 106.157 19.6264V20.696C106.157 21.0199 106.216 21.2997 106.336 21.5355C106.458 21.7713 106.63 21.9531 106.851 22.081C107.073 22.2088 107.336 22.2727 107.64 22.2727C107.841 22.2727 108.026 22.2443 108.194 22.1875C108.361 22.1307 108.505 22.0455 108.624 21.9318C108.743 21.8182 108.834 21.679 108.897 21.5142L110.576 21.625C110.49 22.0284 110.316 22.3807 110.051 22.6818C109.79 22.9801 109.452 23.2131 109.037 23.3807C108.625 23.5455 108.15 23.6278 107.61 23.6278Z" fill="white"/>
</svg>
