<svg width="38" height="38" viewBox="0 0 38 38" fill="none" xmlns="http://www.w3.org/2000/svg">
<g clip-path="url(#clip0_341_2046)">
<circle cx="19" cy="19" r="19" fill="#FFB248"/>
<path d="M24.8332 26.5V24.8333C24.8332 23.9493 24.482 23.1014 23.8569 22.4763C23.2317 21.8512 22.3839 21.5 21.4998 21.5H16.4998C15.6158 21.5 14.7679 21.8512 14.1428 22.4763C13.5177 23.1014 13.1665 23.9493 13.1665 24.8333V26.5" stroke="white" stroke-width="1.5" stroke-linecap="round" stroke-linejoin="round"/>
<path d="M18.9998 18.1667C20.8408 18.1667 22.3332 16.6743 22.3332 14.8333C22.3332 12.9924 20.8408 11.5 18.9998 11.5C17.1589 11.5 15.6665 12.9924 15.6665 14.8333C15.6665 16.6743 17.1589 18.1667 18.9998 18.1667Z" stroke="white" stroke-width="1.5" stroke-linecap="round" stroke-linejoin="round"/>
</g>
<defs>
<clipPath id="clip0_341_2046">
<rect width="38" height="38" fill="white"/>
</clipPath>
</defs>
</svg>
