<svg width="49" height="64" viewBox="0 0 49 64" fill="none" xmlns="http://www.w3.org/2000/svg">
<path d="M0.408742 47.1214V47.1529H0.355469L0.408742 47.1214Z" fill="#0E2F7A"/>
<path d="M0.408742 47.1214V47.1529H0.355469L0.408742 47.1214Z" fill="#0E2F7A"/>
<path d="M24.4811 8.75473L24.4695 8.76457L24.4511 8.74784L24.4608 8.73799C24.4666 8.74488 24.4753 8.74882 24.4811 8.75473Z" fill="#0E2F7A"/>
<path d="M0.0532728 47.0452V47.0767H0L0.0532728 47.0452Z" fill="#0E2F7A"/>
<path d="M13.1279 52.136L16.3017 61.6094L19.4023 52.136H21.7507L17.531 64H15.0178L10.7981 52.136H13.1279Z" fill="#FFB248"/>
<path d="M24.705 61.554V64H22.2464V61.554H24.705Z" fill="#FFB248"/>
<path d="M28.2096 52.136V64H26.0075V52.136H28.2096Z" fill="#FFB248"/>
<path d="M31.4937 59.9291V64H29.2916V52.136H34.3563C36.8881 52.136 38.5574 53.687 38.5574 56.0233C38.5574 58.3053 36.9984 59.9291 34.5768 59.9291H31.4937ZM31.4937 54.0335V57.9577H34.1543C35.4939 57.9577 36.2822 57.2463 36.2822 56.0233C36.2822 54.7644 35.5114 54.0335 34.1543 54.0335H31.4937Z" fill="#FFB248"/>
<path d="M24.6768 0C24.6845 0.00867247 24.7388 0.0472175 24.7465 0.0549263C26.4938 1.40494 28.1889 2.85613 29.8161 4.41718C30.1202 4.7024 30.4215 4.9963 30.7159 5.29021C39.565 14.0956 45.206 24.8958 47.6411 36.2471C47.6469 36.2769 47.6527 36.3049 47.6614 36.3357C47.7031 36.5217 47.7418 36.7096 47.7776 36.8985C47.8193 37.0998 47.859 37.3003 47.8977 37.5026C47.9423 37.7243 47.9849 37.9469 48.0266 38.1704C48.0634 38.3651 48.0963 38.5616 48.1302 38.7582C48.2552 39.4877 48.3695 40.2229 48.4702 40.9572C48.4973 41.1634 48.5225 41.3648 48.5515 41.57C48.5738 41.7521 48.5961 41.9333 48.6184 42.1154C48.6852 42.6897 48.7433 43.2689 48.7966 43.8489C48.846 44.4136 48.8876 44.9822 48.9215 45.5516C48.9361 45.7453 48.9467 45.9419 48.9555 46.1337C48.9758 46.4748 48.9893 46.812 49 47.1512H0.40875V47.1214L0.356445 47.1512C0.359351 47.0674 0.362257 46.9816 0.364194 46.8988V46.8843C0.375817 46.6338 0.386472 46.3852 0.401001 46.1327C0.40875 45.9409 0.420373 45.7444 0.434902 45.5507C0.442651 45.356 0.457179 45.1595 0.474613 44.9629C0.496891 44.5909 0.526917 44.2199 0.560818 43.848C0.577284 43.6562 0.597625 43.4674 0.613123 43.2766C0.632494 43.0858 0.652835 42.8969 0.672207 42.7061C0.675112 42.7003 0.675112 42.6946 0.675112 42.6917C0.675112 42.6917 0.675112 42.6917 0.675112 42.6888C0.694484 42.498 0.719668 42.3062 0.73904 42.1145C0.761317 41.9323 0.783593 41.7512 0.805871 41.5691C0.832992 41.3628 0.858176 41.1615 0.887234 40.9562C0.987967 40.219 1.09839 39.4838 1.22721 38.7573C1.26111 38.5607 1.29404 38.3641 1.33085 38.1695C1.3725 37.9459 1.41415 37.7233 1.4587 37.5017C3.73876 25.6907 9.46894 14.4165 18.6405 5.28924C18.9369 4.99438 19.2372 4.70144 19.5403 4.41621C21.1763 2.8465 22.88 1.38856 24.638 0.0317992" fill="#0E2F7A"/>
<path d="M23.7285 38.4132C14.1511 32.4514 14.7584 23.2904 15.0451 21.1656C15.0839 20.8814 15.2069 20.6173 15.3958 20.4111L18.8226 16.6781C19.1732 16.2956 19.6566 16.0797 20.1602 16.0797H29.1962C29.7009 16.0797 30.1832 16.2956 30.5338 16.6781L33.9607 20.4111C34.1496 20.6173 34.2736 20.8814 34.3113 21.1656C34.598 23.2914 35.2054 32.4514 25.6279 38.4132C25.041 38.7785 24.3145 38.7785 23.7285 38.4132Z" fill="#FFB248"/>
<path d="M28.2237 31.6815H21.1308C20.6087 31.6815 20.1864 31.2604 20.1864 30.742V25.445C20.1864 24.9256 20.6097 24.5055 21.1308 24.5055H28.2237C28.7458 24.5055 29.1681 24.9266 29.1681 25.445V30.742C29.1691 31.2614 28.7458 31.6815 28.2237 31.6815Z" fill="#0E2F7A"/>
<path d="M24.6777 27.0793C23.2394 27.0793 22.0684 25.9153 22.0684 24.4833V22.9657C22.0684 21.5347 23.2384 20.3697 24.6777 20.3697C26.1171 20.3697 27.2871 21.5337 27.2871 22.9657V24.4833C27.2871 25.9153 26.1161 27.0793 24.6777 27.0793ZM24.6777 21.7746C24.0172 21.7746 23.4806 22.3094 23.4806 22.9657V24.4833C23.4806 25.1405 24.0181 25.6744 24.6777 25.6744C25.3374 25.6744 25.8749 25.1396 25.8749 24.4833V22.9657C25.8749 22.3094 25.3383 21.7746 24.6777 21.7746Z" fill="#0E2F7A"/>
<path d="M25.7935 28.8735H23.5609C23.4234 28.8735 23.313 28.7627 23.313 28.6269V27.5601C23.313 27.4233 23.4244 27.3135 23.5609 27.3135H25.7935C25.9311 27.3135 26.0415 27.4243 26.0415 27.5601V28.6269C26.0415 28.7627 25.9311 28.8735 25.7935 28.8735Z" fill="#FFB248"/>
</svg>
