<svg width="80" height="40" viewBox="0 0 80 40" fill="none" xmlns="http://www.w3.org/2000/svg">
<path d="M0.351378 39.9733V40.0007H0.305054L0.351378 39.9733Z" fill="#0E2F7A"/>
<path d="M0.351378 39.9733V40.0007H0.305054L0.351378 39.9733Z" fill="#0E2F7A"/>
<path d="M21.006 7.42703L20.9959 7.43559L20.9799 7.42104L20.9883 7.41248C20.9933 7.41847 21.0009 7.42189 21.006 7.42703Z" fill="#0E2F7A"/>
<path d="M0.0463241 39.9087V39.9361H0L0.0463241 39.9087Z" fill="#0E2F7A"/>
<path d="M50.8246 17.0814L54.4659 27.8273L58.0233 17.0814H60.7177L55.8763 30.539H52.9928L48.1515 17.0814H50.8246Z" fill="#FFB248"/>
<path d="M64.1065 27.7644V30.539H61.2856V27.7644H64.1065Z" fill="#FFB248"/>
<path d="M68.1276 17.0814V30.539H65.6011V17.0814H68.1276Z" fill="#FFB248"/>
<path d="M71.8957 25.9213V30.539H69.3691V17.0814H75.18C78.0848 17.0814 80.0001 18.8408 80.0001 21.4909C80.0001 24.0794 78.2113 25.9213 75.433 25.9213H71.8957ZM71.8957 19.2338V23.6851H74.9483C76.4852 23.6851 77.3896 22.8782 77.3896 21.4909C77.3896 20.063 76.5053 19.2338 74.9483 19.2338H71.8957Z" fill="#FFB248"/>
<path d="M21.1735 0C21.1801 0.00735689 21.2267 0.0400548 21.2333 0.0465943C22.7326 1.19182 24.187 2.42287 25.5832 3.74711C25.8442 3.98907 26.1026 4.23839 26.3553 4.48771C33.9481 11.9574 38.7883 21.1192 40.8776 30.7485C40.8826 30.7739 40.8876 30.7976 40.8951 30.8238C40.9308 30.9815 40.9641 31.1409 40.9948 31.3011C41.0306 31.472 41.0646 31.642 41.0979 31.8137C41.1361 32.0017 41.1727 32.1905 41.2084 32.3801C41.24 32.5453 41.2683 32.712 41.2973 32.8788C41.4046 33.4976 41.5026 34.1213 41.5891 34.7442C41.6123 34.9191 41.6339 35.0899 41.6589 35.264C41.678 35.4185 41.6971 35.5722 41.7162 35.7267C41.7736 36.2139 41.8234 36.7052 41.8691 37.1973C41.9115 37.6763 41.9472 38.1586 41.9763 38.6417C41.9888 38.806 41.9979 38.9727 42.0054 39.1354C42.0229 39.4248 42.0345 39.7109 42.0437 39.9986H0.350665V39.9733L0.305786 39.9986C0.308279 39.9275 0.310773 39.8547 0.312435 39.7844V39.7722C0.322408 39.5597 0.33155 39.3488 0.344017 39.1346C0.350665 38.9719 0.360639 38.8052 0.373105 38.6409C0.379754 38.4757 0.392219 38.309 0.407178 38.1422C0.426293 37.8267 0.452057 37.512 0.481145 37.1965C0.495273 37.0338 0.512727 36.8736 0.526024 36.7117C0.542646 36.5499 0.560099 36.3896 0.57672 36.2278C0.579214 36.2229 0.579213 36.218 0.579213 36.2155C0.579213 36.2155 0.579213 36.2155 0.579213 36.2131C0.595835 36.0512 0.617444 35.8886 0.634065 35.7259C0.65318 35.5714 0.672294 35.4177 0.691409 35.2632C0.714679 35.0883 0.736289 34.9175 0.761221 34.7433C0.847654 34.118 0.942398 33.4943 1.05293 32.878C1.08202 32.7112 1.11028 32.5444 1.14186 32.3793C1.17759 32.1897 1.21333 32.0009 1.25156 31.8128C3.20793 21.7936 8.12463 12.2296 15.9942 4.48689C16.2485 4.23675 16.5061 3.98825 16.7662 3.74629C18.1699 2.4147 19.6318 1.17792 21.1402 0.0269754" fill="#0E2F7A"/>
<path d="M20.3598 32.5861C12.1421 27.5287 12.6632 19.7574 12.9092 17.9549C12.9424 17.7138 13.048 17.4898 13.21 17.3149L16.1504 14.1481C16.4512 13.8236 16.866 13.6405 17.2981 13.6405H25.0513C25.4843 13.6405 25.8982 13.8236 26.199 14.1481L29.1394 17.3149C29.3015 17.4898 29.4078 17.7138 29.4403 17.9549C29.6863 19.7582 30.2073 27.5287 21.9896 32.5861C21.486 32.8959 20.8626 32.8959 20.3598 32.5861Z" fill="#FFB248"/>
<path d="M24.2169 26.8756H18.1309C17.6829 26.8756 17.3206 26.5183 17.3206 26.0786V21.5851C17.3206 21.1445 17.6837 20.7881 18.1309 20.7881H24.2169C24.6648 20.7881 25.0272 21.1453 25.0272 21.5851V26.0786C25.028 26.5192 24.6648 26.8756 24.2169 26.8756Z" fill="#0E2F7A"/>
<path d="M21.1742 22.9715C19.9401 22.9715 18.9353 21.984 18.9353 20.7693V19.4819C18.9353 18.268 19.9393 17.2797 21.1742 17.2797C22.4092 17.2797 23.4132 18.2672 23.4132 19.4819V20.7693C23.4132 21.984 22.4084 22.9715 21.1742 22.9715ZM21.1742 18.4715C20.6074 18.4715 20.147 18.9252 20.147 19.4819V20.7693C20.147 21.3268 20.6083 21.7797 21.1742 21.7797C21.7402 21.7797 22.2015 21.326 22.2015 20.7693V19.4819C22.2015 18.9252 21.741 18.4715 21.1742 18.4715Z" fill="#0E2F7A"/>
<path d="M22.1317 24.4936H20.2161C20.098 24.4936 20.0033 24.3995 20.0033 24.2843V23.3794C20.0033 23.2633 20.0989 23.1701 20.2161 23.1701H22.1317C22.2497 23.1701 22.3445 23.2641 22.3445 23.3794V24.2843C22.3445 24.3995 22.2497 24.4936 22.1317 24.4936Z" fill="#FFB248"/>
</svg>
